<svg height="15" viewBox="0 0 26 15" width="26" xmlns="http://www.w3.org/2000/svg" xmlns:xlink="http://www.w3.org/1999/xlink"><mask id="a" fill="#fff"><path d="m0 11.9183294h25.7501892v-11.91847058h-25.7501892" fill="#fff" fill-rule="evenodd"/></mask><g fill="#cccbcb" fill-rule="evenodd"><path d="m20.2241351 2.30791765-2.5978919 4.52011764c1.5621082 1.21976471 2.6463784 3.02611765 2.9260541 5.09011761h5.1978919c-.3176216-3.85658819-2.3547568-7.39941172-5.5260541-9.61023525z"/><path d="m12.8749892 5.19151765c1.0357838 0 2.0234324.2057647 2.9264054.576l2.5982432-4.52011765c-1.7209189-.81847059-3.6108378-1.24729412-5.5246486-1.24729412s-3.80372974.42882353-5.52429731 1.24729412l2.59789189 4.52011765c.90297302-.3702353 1.89062162-.576 2.92640542-.576"/><path d="m0 11.9183294h5.19789189c.27932433-2.06435293 1.36394595-3.87035293 2.92605406-5.09011764l-2.59824325-4.52011764c-3.17129729 2.21047059-5.20843243 5.75329412-5.5257027 9.61023528" mask="url(#a)"/></g></svg>