<svg height="110" viewBox="0 0 100 110" width="100" xmlns="http://www.w3.org/2000/svg"><g fill="none" fill-rule="evenodd"><path d="m97.204 35.8347c0-4.798-2.605-9.27-6.798-11.669l-33.404-19.113c-2.064-1.181-4.415-1.805-6.798-1.805s-4.734.624-6.798 1.805l-33.404 19.113c-4.193 2.399-6.798 6.871-6.798 11.669v38.226c0 4.798 2.605 9.27 6.798 11.669l33.404 19.113c2.064 1.181 4.415 1.805 6.798 1.805s4.734-.624 6.798-1.805l33.404-19.113c2.186-1.251 3.934-3.067 5.113-5.197 1.083-1.956 1.685-4.175 1.685-6.472z" fill="#fefefe"/><path d="m10.4461 27.7705 35.536-20.333c1.243-.711 2.631-1.067 4.018-1.067s2.775.356 4.018 1.067l35.536 20.333c2.486 1.423 4.018 4.051 4.018 6.897v12.01c-6.552-5.993-29.978-27.23-29.978-27.23-.201-.184-.469-.255-.676-.255s-.475.072-.675.255l-29.658 26.934c-.397.368-.956.366-1.354.054-.357-.281-.522-.853-.203-1.357l6.399-9.603c.23-.345.197-.899-.166-1.262l-7.495-7.222c-.152-.147-.386-.291-.713-.291-.295 0-.531.124-.681.259 0 0-16.883 15.149-21.944 19.718v-12.01c0-2.846 1.532-5.474 4.018-6.897zm89.554 6.897c0-5.105-2.771-9.862-7.232-12.414l-35.536-20.333c-2.196-1.257-4.697-1.921-7.232-1.921s-5.036.664-7.232 1.921l-35.536 20.333c-4.461 2.552-7.232 7.309-7.232 12.414v40.665c0 5.105 2.771 9.862 7.232 12.414l35.536 20.333c2.196 1.256 4.696 1.92 7.232 1.92 2.535 0 5.036-.664 7.232-1.92l35.536-20.333c2.325-1.33 4.186-3.263 5.439-5.528 1.152-2.081 1.793-4.442 1.793-6.886z" fill="#578f3f"/><path d="m72.2601 55.7018c.011-.001.014-.002.014-.002.153-.005.406-.054.461-.065l2.146 34.822.582.01-2.082-35.068c.337-.126.934-.484.573-.953.171-.253.16-.485-.036-.699.343-.206.347-.449.013-.727.104-.089.149-.183.137-.279-.035-.37-.335-.544-.898-.523.052-.18.404-.637.208-.765.069-.246-.003-.359-.216-.342-.081-.024-.172.058-.272.244-.264.005-.786.043-.704.436-.395.094-.618.15-.669.174-.264.108-.374.578-.543.8-.652 1.152-2.481.861-3.588.764-1.211-.105-2.489-.227-3.612-.713.035-.569.047-1.318.087-1.884.049-.717-.082-2.66-.082-2.66.435-1.644.265-2.504.21-2.714.309.116.061-.307-.102-.59.024-.353-.15-.512-.279-.78-.361-.82-.363-1.035-1.018-1.991-.001-.006.078-.129.039-.241-.016-.174-.136-.048-.158-.237.253-2.563 1.82-1.115 1.969-2.052.033-.209-.24-.572.057-.709.359-.166-.234-.413.157-.678.287-.18-.125-.628.269-.707.53-.11.508-.414.239-.782-.142-.195-.599-.712-.52-.972.047-.155.282-.247.285-.412.001-.217-.069-.435-.069-.643.531-.019 1.088-.117 1.545-.401.476-.36.645-.789.509-1.288-.131-.327-2.337-.074-2.564-.067-.052-.061-.666-.439-.852-.551-.362-.218-.743-.342-1.165-.451-.817-.211-1.49-.133-2.272-.068-1.288.116-2.711 2.202-2.338 3.422.087.332-.03.544.007.619 0 0-.004.787.481 1.782.32.657 1.066.619.607 2.771-.309-.062.14.235-.56.586 0 0-.84.313-.853.337.021-.098-.134-.471-.414-.826-.635-.798-.088-1.948-.579-2.504-.363-.393-1.313-.631-2.415-.475-1.081.145-4.499 1.379-4.705 2.819-.443.649-.759.475-.886 3.022-.048.807.332 2.722 1.248 2.62.02.248.233.552.002.719s-.323.457-.079.744c.101.099 1.331 3.547 1.307 4.641.046 1.147.182 2.975.172 3.933-.024 2.24.554 2.7.675 2.86.242.326 1.658.563 2.363.334.026.187.08.461.327.551.004.002.015.006.033.015l.003.005c-.337 1.42.055 1.812.662 3.457-.12.307-3.156 6.445-3.156 6.445-.158.324-1.345 2.548-1.887 3.636l-.463.33s-2.537 1.046-5.849 4.46c-2.812 2.898-3.218 3.383-3.218 3.383s.174.126.132.185c-.742.445-1.328 1.225-1.328 1.225s-.325.483.403 1.386l1.202.982.269-.053s1.845 2.575 2.207 3.081l-.015.038c.533.656 1.925.921 2.164.979.198.049.757.383.93-.374.029-.124.14-.331.147-.519 0 0 .204-.749-.525-1.256 0 0-.228-.173-.58-.447-.181-.342-.419-.797-.669-1.297 0 0-.577-1.317-.387-1.48.034.087.182.177.182.177l.832-.984 1.134-.949 3.65-2.854.686-.647.07.027c.039-.069.071-.13.104-.191l3.172-2.993-.02-.022c.77-.587 1.481-1.218 1.618-1.405.079-.038 2.105-2.702 2.121-2.805.212-.363.893-1.037 1.284-2.309.089-.292.64.504.758.785.783 1.875 1.563 3.715 1.701 3.888.205.623.476 1.569.758 2.04l-.008.447s-.505 3.278.267 7.971c.655 3.984.803 4.599.803 4.599s.206-.064.227.004c-.083.861.195 1.797.195 1.797s.195.548 1.353.5l1.505-.381.118-.248s2.587.001 2.859.005c.273.005 1.949-.28 2.185-.347.196-.055.848-.038.627-.783-.036-.122-.04-.357-.127-.524 0 0-.191-.753-1.074-.836 0 0-.974-.131-2.128-.333 0 0-1.401-.32-1.419-.57.09.024.25-.041.25-.041l-.296-1.253-.087-1.477-.122-4.632-.576-4.292c.042-.787.308-1.407-.033-2.192.111-.16-1.103-5.845-3.383-10.814-.192-.418.104-.567-.404-.96-.034-.114-.066-.214-.096-.305.088-.469.03-.671.017-1.419-.002-.132.666-.435.605-.431-.04-.983-.157-1.191-.348-2.665 2.696.385 4.817-.931 7.436-1.189 0 0 .455.194 1.25.232-.194-.005-.468-.008.12.007" fill="#fefefe"/></g></svg>