<svg height="110" viewBox="0 0 100 110" width="100" xmlns="http://www.w3.org/2000/svg"><g fill="none" fill-rule="evenodd"><path d="m97.204 35.8347c0-4.798-2.605-9.27-6.798-11.669l-33.404-19.113c-2.064-1.181-4.415-1.805-6.798-1.805s-4.734.624-6.798 1.805l-33.404 19.113c-4.193 2.399-6.798 6.871-6.798 11.669v38.226c0 4.798 2.605 9.27 6.798 11.669l33.404 19.113c2.064 1.181 4.415 1.805 6.798 1.805s4.734-.624 6.798-1.805l33.404-19.113c2.186-1.251 3.934-3.067 5.113-5.197 1.083-1.956 1.685-4.175 1.685-6.472z" fill="#fefefe"/><path d="m10.4461 27.7705 35.536-20.333c1.243-.711 2.631-1.067 4.018-1.067s2.775.356 4.018 1.067l35.536 20.333c2.486 1.423 4.018 4.051 4.018 6.897v12.01c-6.552-5.993-29.978-27.23-29.978-27.23-.201-.184-.469-.255-.676-.255s-.475.072-.675.255l-29.658 26.934c-.397.368-.956.366-1.354.054-.357-.281-.522-.853-.203-1.357l6.399-9.603c.23-.345.197-.899-.166-1.262l-7.495-7.222c-.152-.147-.386-.291-.713-.291-.295 0-.531.124-.681.259 0 0-16.883 15.149-21.944 19.718v-12.01c0-2.846 1.532-5.474 4.018-6.897zm89.554 6.897c0-5.105-2.771-9.862-7.232-12.414l-35.536-20.333c-2.196-1.257-4.697-1.921-7.232-1.921s-5.036.664-7.232 1.921l-35.536 20.333c-4.461 2.552-7.232 7.309-7.232 12.414v40.665c0 5.105 2.771 9.862 7.232 12.414l35.536 20.333c2.196 1.256 4.696 1.92 7.232 1.92 2.535 0 5.036-.664 7.232-1.92l35.536-20.333c2.325-1.33 4.186-3.263 5.439-5.528 1.152-2.081 1.793-4.442 1.793-6.886z" fill="#8f181b"/><path d="m82.7594 72.725c-.179-.63-.835-.996-1.465-.816-.126.035-.237.094-.339.163l-.003-.011s-.286.186-.331.12c-.007-.01-.277-.324-.718-.835.284-.287.635-.514 1.051-.632 1.29-.367 2.633.381 3 1.671.366 1.29-.382 2.633-1.672 3-.969.275-1.967-.079-2.56-.818l.421-.547.755-.033c.287.22.669.31 1.045.203.63-.179.995-.835.816-1.465zm1.534 9.73c-5.195 1.478-10.604-1.536-12.081-6.731-.888-3.124-.144-6.32 1.714-8.697l4.334 4.909-.552.642c-.185.138-.081.404-.081.404l.185.786.879.636-.185.879c.393.312.532.173.532.173l.296-.385c.754.851 1.953 1.247 3.119.915 1.622-.461 2.563-2.15 2.102-3.772s-2.15-2.563-3.772-2.102c-.506.144-.945.407-1.296.75-1.065-1.234-2.738-3.169-4.393-5.084 1.073-.965 2.369-1.714 3.85-2.135 5.195-1.477 10.603 1.537 12.08 6.732s-1.537 10.603-6.731 12.08zm-18.931-24.356-2.799 2.689-.318-.656s-2.276-2.928-4.012-5.349l-.058-.229.059.007c-.015-.004-.037-.014-.064-.027l-.684-2.712c.556-.48 1.084-.917 1.113-.943.002-.003.011-.007.014-.01 1.57 1.385 3.525 2.027 5.214 3.411 0 0 .188.468.735 1.069-.137-.144-.332-.343.082.092.008.008.011.009.011.009.019.017.043.037.066.056l-.372.406 1.268 1.437-.024.189c.055.193-.231.561-.231.561zm-.149 3.325-3.072 10.891-.008-.052.222-2.596.049-1.431c-.016-.299-.007-.638 0-.977l.157-1.093c.035-.247.054-.557.16-.825.153-.487.417-1.109.312-1.447l-.18-.583c-.084-.142-.247-.429-.267-.489-.013-.041-.02-.092-.028-.145.051-.062.089-.106.089-.106l.207-.194c.15-.073.292-.178.342-.286l-.011-.023.985-.92c.59-.767.93-.395.93-.395.189.207.113.671.113.671zm-1.824 17.981c-.898.059-1.931.154-2.717.231.309-.199.552-.423.746-.645.063-.008.129-.011.194-.015.168.001.339.003.513.005.012.001.022 0 .033.002.502.058.915.241 1.231.422zm-3.894-2.909.002.303c-.034.12-.074.258-.114.413-.051.198-.169.511-.244.769-.17-.039-.247-.117-.247-.117-.733-.469-2.64-3.235-2.64-3.235l-.61-1.236 1.588-1.648 1.062-1.579.157.011.007.04.362 1.167.38 1.836c.143.83.254 1.671.362 2.512.011.031-.075.127-.055.187-.012.207.09.41-.01.577zm-4.097 7.066c-.011-.304-.034-.608-.071-.913l.057-.009s.285-.048.645-.251c.239.164.512.28.803.347zm-8.917 9.757c-5.144 1.463-10.5-1.522-11.962-6.666-1.463-5.144 1.521-10.499 6.665-11.962 2.535-.72 5.118-.358 7.264.807-.12.094-.319.225-.547.393-.235.173-.73.445-.906.624s-.494.501-.07 1.101c.281.397.708.669 1.175 1.025l-2.587 2.292c-.219-.197-.751-.638-.858-.609-.127.034-.81.531-.81.531s-.624-.439-.797-.393c-.174.047-.382.197-.382.393 0 .197.347.517.347.517-1.346.383-2.126 1.784-1.744 3.129.316 1.112 1.329 1.827 2.43 1.829.004.064.012.127.03.191.128.446.585.707 1.033.597l.064 1.081c-.313.132-.496.459-.446.795l-.546.197.058.185 1.024.318.004.06c.005.086.054.164.131.205.037.02.077.03.118.03.043 0 .086-.012.125-.034l8.137-4.684c-.491 3.711-3.12 6.959-6.95 8.048zm7.733-14.428c-.481-.98-1.089-1.869-1.8-2.653l2.097-1.753 1.886 2.748-.399 1.099zm.629 1.554c-.122-.377-.261-.742-.416-1.097l1.102-.345c-.315.391-.507.882-.514 1.421zm-5.008.34c.015.031.029.059.04.078.029.047.07.099.115.152-.018.023-.437.604.187.679.097.012.302.012.578.003.204.14.485.33.581.38l-5.214.99c-.112-.366-.306-.681-.549-.947zm-1.007-1.513c.387.397.626.769.783 1.06l-3.353 1.049 2.549-2.129c.007.007.014.013.021.02zm4.064 1.335c-.209-.173-.381-.287-.381-.287s-.138-.126-.258-.292l.347-.108c.104.224.204.452.292.687zm-.509-1.143-.343.107c-.077-.229-.146-.472-.141-.663.004-.128-.024-.217-.033-.304.185.276.359.562.517.86zm1.101 5.2-7.647 4.402c.032-.124.035-.255-.002-.386-.023-.08-.06-.15-.104-.215l.542-2.083c.185-.405-.115-.578-.115-.578l-.546-.334c.336-.386.551-.867.609-1.381l7.227-1.143c.064.577.075 1.151.036 1.718zm-2.016-16.231-.828-.989.155-.096-.244-.4-.288.167-.984-1.425-.172.027-2.983-4.259.907-.935c.744-.863 1.244-1.031 1.244-1.031.342-.142.924-.314 1.079-.358l4.572 6.576c.107.103.587.662.809.787.094.053.8-.093.8-.093.126.074.335.522.281.616-.055.097-.068.048-.086.077-.353.262-.802.467-1.192.791-.068.054-.184.148-.316.258l-.871.403c-1.374.755-1.883-.116-1.883-.116zm41.48 1.395c-1.779-6.257-8.294-9.888-14.551-8.108-1.846.524-3.46 1.463-4.778 2.684-.743-.89-1.901-2.274-2.349-2.801-.078-.092.065-.373-.007-.458-.649-.763-1.053-1.239-1.053-1.239l-.623-.448s-.141-.097-.378-.108l-2.345-2.746-.259.136c-.041-.088-.076-.16-.095-.192-.199-.334.455-.233.455-.233l.019-.036c.207-.015.334-.108.195-.349l.098-.176c.361-.062.606-.257.657-.323.223-.223-.127-1.782-.381-1.877.032.064-.732-.414-1.686-.636-1.336-.445-2.446-1.694-3.177-2.562-.54-.643-1.095-1.315-1.541-2.041.805-1.218 2.11-3.314 2.598-4.017.614-.884.093-2.44.072-3.448-.001-.078.093-.266.037-.407l-.069-.066c.191-.249.843-.796 1.81-.412.463.184.887.18 1.291.062.366-.106.33-.371.478-.811.031-.17.167-.248.219-.343.04-.132.035-.288.001-.397l.147-.043c.366-.106.109-.311.243-.668.13.044.299.073.409.041.073-.02.104-.19.108-.308l-.216-.734c-.031-.11-.068-.098-.077-.136.078-.141.119-.271.122-.391.009-.242.001-.677-.03-.786-.02-.073-.141-.079-.199-.142.545-.037 1.525-.084 1.596-.106 0 0 .335-.216.304-.326-.034-.109-.739-.62-.992-.943-.322-.421-.471-.934-.709-1.343-.408-.715-1.385-1.742-2.428-1.917-1.464-.25-3.008.041-4.363.433-.075.023-.82.164-.801.394.013.158.271.318.411.317-.285.003-.524.077-.447.242.431.974-.163.529.075 1.335.031.11.577 1.024.596 1.096.109.366.048.702.128 1.115.011.037.093.271.071.377-.13.62-.541 1.159-.824 1.45l-.114-.109c-.197-.042-.426.154-.536.184-.073.019-1.521.656-1.631.686-.075.02-.986-.501-1.714-.418 0 0-.973.198-2.45 1.243-.063.045-2.556 1.709-3.251 2.285-.578.48-2.493 2.962-2.385 3.641.109.685 1.019.992 1.045.973-.48.339-1.703 2.242-2.404 4.16-.064.178.219.217.444.312-.191.449-.534.937-.643 1.402-.04.149-.073.302-.101.457-.81 1.419-.966 3.448 1.628 5.909l.074-.005.307.442c-.649.125-1.323.37-1.323.37-2.191.909-3.182 1.087-3.182 1.087-2.586.344-3.02.832-3.02.832-.524.54.126.903.126.903l1.735-.311c.774.613 1.211.593 1.211.593l.741-.236 4.254 5.799c-.514.484-.183.547-.183.547s.444.004.523.007c.04.002 1.048 1.376 2.036 2.736l-.437.985-.644.93-.106.193c-.241.316-.497.79-.737 1.164-2.679-1.675-6.028-2.254-9.306-1.322-6.149 1.748-9.716 8.15-7.968 14.299 1.749 6.148 8.15 9.716 14.299 7.967 5.049-1.435 8.355-6.009 8.409-11.004l2.382-1.371c.986-.185 1.749-.992 1.882-1.998l5.842-.681s.062-.085.094-.198c.166-.015.314-.032.364-.045.134-.035.734-.16 1.063-.411.329-.25.966-.867.468-1.352-.498-.486-1.748-.337-1.748-.337s-.098-.004-.228-.027c-.479-.254-.904-.525-1.128-.673-.003-.004-.007-.007-.01-.01-.153-.201-.3-.202-.447-.448-.17-.282-.272-.285-.254-.465.017-.181-.069-.406-.24-.142-.172.266-.124.246-.268.226-.081-.011-.078-.014-.244-.14-.005-.104-.066-.298-.145-.552l4.299-14.176c.232-.531.492-.727.709-.782l.015.029s.285.652.536.711c0 0 .947.304 1.607 1.159l.34-.101 2.425 2.983c-2.512 2.901-3.561 6.97-2.433 10.938 1.78 6.257 8.294 9.887 14.552 8.108 6.257-1.779 9.887-8.294 8.108-14.551z" fill="#fefefe"/></g></svg>