<svg height="15" viewBox="0 0 26 15" width="26" xmlns="http://www.w3.org/2000/svg"><g fill="none" fill-rule="evenodd"><path d="m12.8750595 5.13115116c-1.0357838 0-2.0234325.2033721-2.92640545.56930233l-2.59824324-4.46755814c1.72091892-.80895349 3.61083779-1.2327907 5.52464869-1.2327907 1.9138108 0 3.8037297.42383721 5.5242973 1.2327907l-2.5978919 4.46755814c-.902973-.36593023-1.8906217-.56930233-2.9264054-.56930233" fill="#ccc"/><path d="m22.4239811 7.61413953c-.3576757-.72732558-1.1714054-1.11523255-1.9668649-.93593023l-2.3041621.5183721c-.1693514-.15627907-.343973-.30662791-.5266757-.44790698l2.5978919-4.46755814c3.1712973 2.18511628 5.2084324 5.68674419 5.5257027 9.49848842h-5.1975406c-.0365405-.2668605-.0885405-.5288373-.1517838-.7862791l1.5568379-1.26418607c.631027-.51174418.8242703-1.38802325.4665946-2.115" fill="#c00"/><path d="m5.52587838 2.2810814 2.59789189 4.46755813c-1.56210811 1.2055814-2.64637838 2.99093024-2.92605405 5.03093027h-5.1978919c.31762163-3.81174422 2.35475676-7.31337213 5.52605406-9.4984884" fill="#ccc"/><path d="m11.5242892 10.4380465c.0305676-.0156977.0635946-.0275581.0952162-.0418605.0453243-.0195348.1623243-.0624418.3014595-.1046511.1714594-.0516279 8.893054-2.08255816 8.893054-2.08255816.0765946-.01848837.1437027.02790698.1788379.09174419.001054.00174419.0042162.00837209.0045675.00872093.0003514.00034884.0035135.00662791.0042162.00872093.030919.06627907.0284595.1472093-.0319729.19744186 0 0-6.8327298 5.75162795-6.9767838 5.85767445-.1166487.0861628-.221.1538372-.2642162.1786046-.0302162.0167442-.0593784.0359303-.0902973.0509303-.0084325.0045348-.0161622.0097674-.024946.0139534-1.1577027.5794186-2.5694324.1172093-3.1526757-1.0322093l-.0024594-.0048837c-.58359461-1.1494186-.1180541-2.5506977 1.04-3.1301163.0084324-.004186.0172162-.0073255.026-.0115116" fill="#c00"/></g></svg>