<svg height="110" viewBox="0 0 100 110" width="100" xmlns="http://www.w3.org/2000/svg"><g fill="none" fill-rule="evenodd"><path d="m97.204 35.8347c0-4.798-2.605-9.27-6.798-11.669l-33.404-19.113c-2.064-1.181-4.415-1.805-6.798-1.805s-4.734.624-6.798 1.805l-33.404 19.113c-4.193 2.399-6.798 6.871-6.798 11.669v38.226c0 4.798 2.605 9.27 6.798 11.669l33.404 19.113c2.064 1.181 4.415 1.805 6.798 1.805s4.734-.624 6.798-1.805l33.404-19.113c2.186-1.251 3.934-3.067 5.113-5.197 1.083-1.956 1.685-4.175 1.685-6.472z" fill="#fefefe"/><path d="m10.4461 27.7705 35.536-20.333c1.243-.711 2.631-1.067 4.018-1.067s2.775.356 4.018 1.067l35.536 20.333c2.486 1.423 4.018 4.051 4.018 6.897v12.01c-6.552-5.993-29.978-27.23-29.978-27.23-.201-.184-.469-.255-.676-.255s-.475.072-.675.255l-29.658 26.934c-.397.368-.956.366-1.354.054-.357-.281-.522-.853-.203-1.357l6.399-9.603c.23-.345.197-.899-.166-1.262l-7.495-7.222c-.152-.147-.386-.291-.713-.291-.295 0-.531.124-.681.259 0 0-16.883 15.149-21.944 19.718v-12.01c0-2.846 1.532-5.474 4.018-6.897zm89.554 6.897c0-5.105-2.771-9.862-7.232-12.414l-35.536-20.333c-2.196-1.257-4.697-1.921-7.232-1.921s-5.036.664-7.232 1.921l-35.536 20.333c-4.461 2.552-7.232 7.309-7.232 12.414v40.665c0 5.105 2.771 9.862 7.232 12.414l35.536 20.333c2.196 1.256 4.696 1.92 7.232 1.92 2.535 0 5.036-.664 7.232-1.92l35.536-20.333c2.325-1.33 4.186-3.263 5.439-5.528 1.152-2.081 1.793-4.442 1.793-6.886z" fill="#c06027"/><path d="m59.9875 49.0353c-.57-.075-.534-.058-.534-.058s-2.017-.209-2.23-.295c0 0 2.078-1.691 2.805-2.478-.012.671-.059 2.146-.041 2.831m6.373 7.127c.029-.083.332-1.479.385-1.743 1.209-.251 2.263-.67 2.869-.938.696-.332 3.137-1.713 3.284-1.751s.624-.099.624-.099c.293.076.886.016.968-.003.179-.041 1.007-.262 1.162-.374.231-.166.114-.46.119-.508.005-.047.146-.218.155-.425.008-.2-.186-.347-.162-.372.024-.026.081-.167.108-.262.028-.097-.038-.207-.2-.325-.161-.118-.101-.15-.109-.183-.007-.034.071-.189.106-.371s-.18-.324-.407-.388c-.228-.065-.565.103-.616.073-.051-.031.008-.12.229-.373.248-.286-.22-.401-.453-.322-.193.066-.621.258-.922.591-.3.333-.575.596-.669.925-.093.328-.549.642-.549.642s-1.54.577-2.594.863c-1.447.392-2.377.645-2.435.697.076-.471.133-.885.139-.944.02-.212.236-1.498.52-1.898.442-.621.908-.877.908-1.738 0-.574-.631-1.76-1.042-2.546-.245-.469-.439-.957-.439-.957l-.146-1.548s.065-.911.097-1.014c.033-.103.186-.281.491-.401.306-.119 1.241.034 1.241.034.311.042.506-.267.576-.467.071-.201-.067-.55-.075-.631-.009-.08.071-.217.161-.272.09-.056.042-.252.042-.252l-.268-.217-.058-.062.353-.238s.075-.072.003-.199c-.036-.063-.032-.28.04-.316.071-.036.294-.228.559-.416.267-.187.033-.337.033-.337s-.638-.892-.677-.96-.078-.37-.043-.494c.035-.125.051-.294.051-.294-.027-.194-.5-1.156-.603-1.272-.101-.116-.405-.721-.397-.805.008-.086-.074-.418-.114-.694-.042-.275-1.164-.601-1.427-.69s-1.817-.152-2.545-.116c-.727.037-1.217.438-2.011 1.171-.171.159-.319.348-.448.545-.071-.011-.191-.077-.245.063-.004 0-.273-.056-.44-.076-.459-.258-1.402-.662-2.144-.594-.951.086-1.912.339-2.351.353-.504.017-1.825.922-1.755.986.089.081 1.38-.509 2.165-.314.488.122.861.039 1.115.083-1.192.547-2.55 1.595-3.142 3.763 0 0-.134.52-.328.936 0 0-.178.417-.698.849-.649.449.36-.007.36-.007.331-.239 1.355-.589 1.562-1.297.311-1.063.837-1.307.837-1.307s-.504.685-.281 1.123c.166.328.37.564.37.564.282.389.251.887.251.887.132.047.417-.927.345-1.324-.086-.474-.092-.482.014-.776.088-.244.421-.422.659-.557.133-.067.519-.218.854-.442 0 0 1.149-.766 1.437-.988 0 0 .194-.186.476-.472 0 0 .158-.105.261-.206-.017.081-.008.18.006.19.009.005.023.014.042.022-.017.263-.016.867.064 1.461.065.278.149.456.208.7.041.166.459.875.736 1.285.278.409.59.227.773.436.184.209.165.357.165.357s-.041.955-.125 1.309c-.082.355-.696.467-.696.467-.037.027-.078.065-.119.104-.114-.023-.225-.034-.323-.007-.153.041-.437.164-.772.332 0 0-1.475.523-2.626 2.081-.217.208-.488.508-.58.587-.138.119-3.824 2.951-4.719 5.02 0 0-.413 1.022.282 1.352.695.332 3.55.805 4.195.866.271.027 1.196.05 2.175.069.028 1.149-.51 3.906-.599 4.254-.059.225-.352.5-.583.864-.187-.024-1.184.715-1.709 1.188-.368.332-1.193 1.686-1.46 2.985-.122.808-.506 1.813-.738 2.29-.544 1.377-.954 1.719-1.168 2.189-.153.287-.796 1.278-.978 1.512-.951 1.227-1.193 1.748-1.691 2.755-.316.639-.635 1.633-1.052 1.598-.947-.078-1.824-.888-4.452-.532-1.224.166-1.725.313-3.26.397-1.073.059-3.06-.075-3.358-.171-.102-.033-.434-.086-.466-.123-.106-.117-.257-.318-.45-.548-.194-.231-.507-.724-.703-.893-.196-.171-.549-.478-1.139-.001-.591.476-.86 1.272-1.585 2.071-.724.801-1.401 1.065-1.572 1.184-.262.182-.655.722-.658.725-.001-.002-.457.747-.508.88-.05.134-.306.714-.292 1.142.013.427.15 1.332.857 1.205.708-.127 1.333-1.269 1.333-1.269s.25-.324.53-.445c.282-.121.627-.269.887-.278s.358-.138.617.005c.258.143.373.278.514.4.142.123.524.291.405-.013-.121-.304-.425-.71-.322-.82.105-.11.707-.318.886-.291.18.027 5.139.302 7.436.711 2.023.361 4.431.57 5.561.881 1.131.311 1.809-.308 2.509-.927s1.507-1.289 2.508-2.087c.469-.374 1.349-1.301 2.216-2.283 1.65-1.748 3.059-3.507 3.521-4.095.61.839 1.709 2.245 2.95 3.338 1.301 1.146 4.234 3.776 4.217 4.237l.026-.01c-.121.614-.805 1.399-1.087 3.811-.172 1.481.487 3.047.656 4.66 0 0 .273 3.194-.001 3.925-.037.1-.19.068-.22.106-.098.123-.054.229-.084.472l.027.003c-.044.176-.116.388-.126.417-.049.15-.149.382-.253.663-.104.283-.376.799-.426 1.054-.051.255-.142.713.565.989s1.531.115 2.585.347c1.054.231 1.62.688 1.808.777.288.137.952.21.956.211-.001.002.875.026 1.017.003.141-.022.771-.088 1.135-.313.365-.223 1.082-.791.621-1.342-.462-.551-1.763-.527-1.763-.527s-.406-.056-.65-.239c-.245-.184-.545-.411-.682-.631-.137-.222-.297-.243-.302-.539-.004-.295.056-.462.093-.645.036-.184-.009-.599-.212-.345-.205.256-.406.721-.553.686-.081-.019-.262-.156-.42-.303.016-.304-.346-1.349-.312-2.562.095-.774.192-1.501.252-1.873.165-1.045.781-4.554.952-5.638.169-1.079.148-1.557.528-2.538.345-.893.58-1.602.185-2.577l-.006.002c-.37-.938-1.656-3.337-2.261-4.272-1.78-2.747-3.889-5.137-4.589-6.098-.137-.189-.379-.599-.523-1.056-.156-.497.246-1.242.246-1.242.442-.975.792-2.615.792-2.615" fill="#fefefe"/></g></svg>