<svg height="111" viewBox="0 0 388 111" width="388" xmlns="http://www.w3.org/2000/svg"><g fill="none" fill-rule="evenodd"><g fill="#fff" transform="translate(119 23)"><path d="m9.9422 53.794c0-1.678-1.127-2.355-3.404-2.355h-1.629c-.299 0-.375.102-.375.376v4.057c0 .274.076.374.375.374h1.629c2.203 0 3.404-.801 3.404-2.452m-9.114-6.361h5.885c5.132 0 7.735 2.079 7.735 6.334 0 4.284-2.803 6.485-7.91 6.485h-1.629c-.299 0-.375.102-.375.377v3.681c0 .449-.2.65-.676.65h-3.03c-.45 0-.651-.201-.651-.65v-16.226c0-.45.201-.651.651-.651"/><path d="m26.6283 53.4179c0-1.452-1.052-1.979-3.054-1.979h-1.904c-.299 0-.374.103-.374.377v3.28c0 .301.075.4.374.4h1.904c2.102 0 3.054-.702 3.054-2.078m-9.039-5.985h6.16c4.933 0 7.385 1.955 7.385 5.76 0 2.503-1.201 4.156-3.027 5.082l3.88 5.884c.126.175.175.325.175.451 0 .224-.201.35-.576.35h-3.38c-.701 0-1.026-.201-1.376-.75l-2.832-4.557c-.175-.277-.325-.352-.649-.352h-1.679c-.299 0-.374.075-.374.376v4.632c0 .45-.202.651-.677.651h-3.03c-.449 0-.651-.201-.651-.651v-16.225c0-.449.202-.651.651-.651"/><path d="m47.3561 56.2221c0-3.106-2.127-5.108-4.883-5.108-2.778 0-4.856 2.029-4.856 5.108 0 3.054 2.053 5.058 4.832 5.058 2.753 0 4.907-2.028 4.907-5.058m-4.883-9.114c5.459 0 9.389 3.78 9.389 9.09 0 5.331-3.954 9.088-9.438 9.088-5.384 0-9.314-3.732-9.314-9.04 0-5.331 3.957-9.138 9.363-9.138"/><path d="m54.1135 61.1816c.276 0 .651.076 1.102.076 1.102 0 1.853-.853 1.853-2.48v-10.694c0-.449.201-.651.677-.651h3.028c.45 0 .652.202.652.651v10.994c0 3.807-1.553 6.186-5.635 6.186-.675 0-1.452-.052-1.928-.178-.474-.123-.575-.325-.523-.825l.274-2.454c.05-.476.175-.625.5-.625"/><path d="m66.2031 47.4333h10.516c.451 0 .676.202.676.651v2.704c0 .476-.225.651-.676.651h-6.434c-.301 0-.377.102-.377.377v1.952c0 .301.076.375.377.375h5.608c.449 0 .651.2.651.676v2.68c0 .451-.202.65-.651.65h-5.608c-.301 0-.377.1-.377.377v2.051c0 .277.076.377.377.377h6.458c.451 0 .677.175.677.651v2.704c0 .449-.226.651-.677.651h-10.54c-.451 0-.651-.202-.651-.651v-16.225c0-.449.2-.651.651-.651"/><path d="m95.6612 62.3552c0 .176-.125.351-.377.577-1.75 1.452-4.03 2.354-6.557 2.354-5.334 0-9.316-3.806-9.316-8.989 0-5.308 4.006-9.189 9.515-9.189 2.554 0 4.756.927 6.46 2.355.199.175.299.325.299.476 0 .148-.048.274-.174.449l-1.452 2.053c-.151.226-.301.326-.476.326-.151 0-.326-.075-.5-.201-1.151-.826-2.554-1.452-4.181-1.452-2.88 0-4.982 2.054-4.982 5.108 0 2.954 2.078 5.058 4.982 5.058 1.677 0 3.054-.576 4.231-1.478.199-.15.351-.225.5-.225.175 0 .301.099.45.301l1.428 2.051c.101.152.15.301.15.426"/><path d="m101.6872 51.4394h-3.956c-.451 0-.652-.199-.652-.651v-2.704c0-.45.201-.651.652-.651h13.02c.451 0 .65.201.65.651v2.704c0 .452-.199.651-.65.651h-3.956c-.276 0-.377.102-.377.377v12.493c0 .449-.198.651-.649.651h-3.056c-.45 0-.649-.202-.649-.651v-12.493c0-.275-.103-.377-.377-.377"/><path d="m9.3783 9.3759h-7.909c-.902 0-1.3-.398-1.3-1.302v-5.406c0-.899.398-1.302 1.3-1.302h26.035c.899 0 1.302.403 1.302 1.302v5.406c0 .904-.403 1.302-1.302 1.302h-7.912c-.549 0-.748.204-.748.753v24.98c0 .899-.403 1.302-1.305 1.302h-6.109c-.899 0-1.299-.403-1.299-1.302v-24.98c0-.549-.202-.753-.753-.753"/><path d="m52.2409 13.3323c0-2.903-2.103-3.956-6.106-3.956h-3.808c-.597 0-.748.204-.748.753v6.557c0 .602.151.801.748.801h3.808c4.202 0 6.106-1.403 6.106-4.155m-18.073-11.966h12.317c9.863 0 14.766 3.908 14.766 11.515 0 5.006-2.403 8.31-6.054 10.163l7.759 11.765c.252.35.35.65.35.902 0 .448-.401.7-1.151.7h-6.759c-1.402 0-2.052-.403-2.752-1.501l-5.661-9.111c-.35-.554-.65-.705-1.299-.705h-3.357c-.597 0-.748.151-.748.753v9.262c0 .899-.403 1.302-1.352 1.302h-6.059c-.899 0-1.302-.403-1.302-1.302v-32.441c0-.899.403-1.302 1.302-1.302"/><path d="m86.9473 22.7936c0-.101 0-.252-.098-.398l-3.254-6.912-3.256 6.912c-.098.146-.151.297-.151.398 0 .252.204.35.554.35h5.656c.403 0 .549-.098.549-.35m-3.203-22.177c.949 0 1.654.652 2.654 2.651l15.67 31.492c.199.35.247.65.247.899 0 .552-.398.753-1.098.753h-6.358c-1.251 0-1.652-.201-2.156-1.302l-1.951-4.155c-.247-.549-.398-.652-.952-.652h-12.412c-.554 0-.702.103-.952.652l-1.903 4.155c-.499 1.101-.902 1.302-2.103 1.302h-6.106c-.703 0-1.151-.201-1.151-.753 0-.249.05-.549.249-.899l15.67-31.492c1-1.999 1.65-2.651 2.652-2.651"/><path d="m107.2316 1.366h6.059c.952 0 1.349.403 1.349 1.302v32.441c0 .899-.397 1.302-1.349 1.302h-6.059c-.902 0-1.302-.403-1.302-1.302v-32.441c0-.899.4-1.302 1.302-1.302"/><path d="m123.5335 1.366h6.059c.952 0 1.352.403 1.352 1.302v24.98c0 .554.151.753.75.753h12.868c.899 0 1.302.403 1.302 1.302v5.406c0 .899-.403 1.302-1.302 1.302h-21.029c-.899 0-1.302-.403-1.302-1.302v-32.441c0-.899.403-1.302 1.302-1.302"/><path d="m184.0107 13.3323c0-2.903-2.103-3.956-6.106-3.956h-3.808c-.599 0-.75.204-.75.753v6.557c0 .602.151.801.75.801h3.808c4.202 0 6.106-1.403 6.106-4.155m-18.073-11.966h12.317c9.858 0 14.766 3.908 14.766 11.515 0 5.006-2.403 8.31-6.059 10.163l7.764 11.765c.246.35.35.65.35.902 0 .448-.403.7-1.151.7h-6.761c-1.4 0-2.05-.403-2.755-1.501l-5.656-9.111c-.35-.554-.65-.705-1.299-.705h-3.357c-.599 0-.75.151-.75.753v9.262c0 .899-.401 1.302-1.35 1.302h-6.059c-.904 0-1.302-.403-1.302-1.302v-32.441c0-.899.398-1.302 1.302-1.302"/><path d="m200.0607 1.366h6.059c.952 0 1.352.403 1.352 1.302v18.022c0 5.356 2.405 8.36 7.109 8.36 4.656 0 7.159-3.004 7.159-8.36v-18.022c0-.899.4-1.302 1.302-1.302h6.058c.947 0 1.35.403 1.35 1.302v18.624c0 10.564-6.708 15.769-16.172 15.769-9.063 0-15.519-4.908-15.519-15.671v-18.722c0-.899.403-1.302 1.302-1.302"/><path d="m239.0352.7156c.7 0 1.4.501 2.601 1.652l18.022 16.922v-16.622c0-.899.403-1.302 1.305-1.302h6.053c.904 0 1.355.403 1.355 1.302v32.443c0 1.252-.35 1.952-1.204 1.952-.7 0-1.4-.501-2.601-1.652l-18.022-16.922v16.622c0 .897-.4 1.3-1.352 1.3h-6.059c-.899 0-1.302-.403-1.302-1.3v-32.443c0-1.249.35-1.952 1.204-1.952"/></g><g transform="translate(0 1)"><path d="m97.204 35.8347c0-4.798-2.605-9.27-6.798-11.669l-33.404-19.113c-2.064-1.181-4.415-1.805-6.798-1.805s-4.734.624-6.798 1.805l-33.404 19.113c-4.193 2.399-6.798 6.871-6.798 11.669v38.226c0 4.798 2.605 9.27 6.798 11.669l33.404 19.113c2.064 1.181 4.415 1.805 6.798 1.805s4.734-.624 6.798-1.805l33.404-19.113c2.186-1.251 3.934-3.067 5.113-5.197 1.083-1.956 1.685-4.175 1.685-6.472z" fill="#fefefe"/><path d="m10.4461 27.7705 35.536-20.333c1.243-.711 2.631-1.067 4.018-1.067s2.775.356 4.018 1.067l35.536 20.333c2.486 1.423 4.018 4.051 4.018 6.897v12.01c-6.552-5.993-29.978-27.23-29.978-27.23-.201-.184-.469-.255-.676-.255s-.475.072-.675.255l-29.658 26.934c-.397.368-.956.366-1.354.054-.357-.281-.522-.853-.203-1.357l6.399-9.603c.23-.345.197-.899-.166-1.262l-7.495-7.222c-.152-.147-.386-.291-.713-.291-.295 0-.531.124-.681.259 0 0-16.883 15.149-21.944 19.718v-12.01c0-2.846 1.532-5.474 4.018-6.897zm89.554 6.897c0-5.105-2.771-9.862-7.232-12.414l-35.536-20.333c-2.196-1.257-4.697-1.921-7.232-1.921s-5.036.664-7.232 1.921l-35.536 20.333c-4.461 2.552-7.232 7.309-7.232 12.414v40.665c0 5.105 2.771 9.862 7.232 12.414l35.536 20.333c2.196 1.256 4.696 1.92 7.232 1.92 2.535 0 5.036-.664 7.232-1.92l35.536-20.333c2.325-1.33 4.186-3.263 5.439-5.528 1.152-2.081 1.793-4.442 1.793-6.886z" fill="#c06027"/><path d="m59.9875 49.0353c-.57-.075-.534-.058-.534-.058s-2.017-.209-2.23-.295c0 0 2.078-1.691 2.805-2.478-.012.671-.059 2.146-.041 2.831m6.373 7.127c.029-.083.332-1.479.385-1.743 1.209-.251 2.263-.67 2.869-.938.696-.332 3.137-1.713 3.284-1.751s.624-.099.624-.099c.293.076.886.016.968-.003.179-.041 1.007-.262 1.162-.374.231-.166.114-.46.119-.508.005-.047.146-.218.155-.425.008-.2-.186-.347-.162-.372.024-.026.081-.167.108-.262.028-.097-.038-.207-.2-.325-.161-.118-.101-.15-.109-.183-.007-.034.071-.189.106-.371s-.18-.324-.407-.388c-.228-.065-.565.103-.616.073-.051-.031.008-.12.229-.373.248-.286-.22-.401-.453-.322-.193.066-.621.258-.922.591-.3.333-.575.596-.669.925-.093.328-.549.642-.549.642s-1.54.577-2.594.863c-1.447.392-2.377.645-2.435.697.076-.471.133-.885.139-.944.02-.212.236-1.498.52-1.898.442-.621.908-.877.908-1.738 0-.574-.631-1.76-1.042-2.546-.245-.469-.439-.957-.439-.957l-.146-1.548s.065-.911.097-1.014c.033-.103.186-.281.491-.401.306-.119 1.241.034 1.241.034.311.042.506-.267.576-.467.071-.201-.067-.55-.075-.631-.009-.08.071-.217.161-.272.09-.056.042-.252.042-.252l-.268-.217-.058-.062.353-.238s.075-.072.003-.199c-.036-.063-.032-.28.04-.316.071-.036.294-.228.559-.416.267-.187.033-.337.033-.337s-.638-.892-.677-.96-.078-.37-.043-.494c.035-.125.051-.294.051-.294-.027-.194-.5-1.156-.603-1.272-.101-.116-.405-.721-.397-.805.008-.086-.074-.418-.114-.694-.042-.275-1.164-.601-1.427-.69s-1.817-.152-2.545-.116c-.727.037-1.217.438-2.011 1.171-.171.159-.319.348-.448.545-.071-.011-.191-.077-.245.063-.004 0-.273-.056-.44-.076-.459-.258-1.402-.662-2.144-.594-.951.086-1.912.339-2.351.353-.504.017-1.825.922-1.755.986.089.081 1.38-.509 2.165-.314.488.122.861.039 1.115.083-1.192.547-2.55 1.595-3.142 3.763 0 0-.134.52-.328.936 0 0-.178.417-.698.849-.649.449.36-.007.36-.007.331-.239 1.355-.589 1.562-1.297.311-1.063.837-1.307.837-1.307s-.504.685-.281 1.123c.166.328.37.564.37.564.282.389.251.887.251.887.132.047.417-.927.345-1.324-.086-.474-.092-.482.014-.776.088-.244.421-.422.659-.557.133-.067.519-.218.854-.442 0 0 1.149-.766 1.437-.988 0 0 .194-.186.476-.472 0 0 .158-.105.261-.206-.017.081-.008.18.006.19.009.005.023.014.042.022-.017.263-.016.867.064 1.461.065.278.149.456.208.7.041.166.459.875.736 1.285.278.409.59.227.773.436.184.209.165.357.165.357s-.041.955-.125 1.309c-.082.355-.696.467-.696.467-.037.027-.078.065-.119.104-.114-.023-.225-.034-.323-.007-.153.041-.437.164-.772.332 0 0-1.475.523-2.626 2.081-.217.208-.488.508-.58.587-.138.119-3.824 2.951-4.719 5.02 0 0-.413 1.022.282 1.352.695.332 3.55.805 4.195.866.271.027 1.196.05 2.175.069.028 1.149-.51 3.906-.599 4.254-.059.225-.352.5-.583.864-.187-.024-1.184.715-1.709 1.188-.368.332-1.193 1.686-1.46 2.985-.122.808-.506 1.813-.738 2.29-.544 1.377-.954 1.719-1.168 2.189-.153.287-.796 1.278-.978 1.512-.951 1.227-1.193 1.748-1.691 2.755-.316.639-.635 1.633-1.052 1.598-.947-.078-1.824-.888-4.452-.532-1.224.166-1.725.313-3.26.397-1.073.059-3.06-.075-3.358-.171-.102-.033-.434-.086-.466-.123-.106-.117-.257-.318-.45-.548-.194-.231-.507-.724-.703-.893-.196-.171-.549-.478-1.139-.001-.591.476-.86 1.272-1.585 2.071-.724.801-1.401 1.065-1.572 1.184-.262.182-.655.722-.658.725-.001-.002-.457.747-.508.88-.05.134-.306.714-.292 1.142.013.427.15 1.332.857 1.205.708-.127 1.333-1.269 1.333-1.269s.25-.324.53-.445c.282-.121.627-.269.887-.278s.358-.138.617.005c.258.143.373.278.514.4.142.123.524.291.405-.013-.121-.304-.425-.71-.322-.82.105-.11.707-.318.886-.291.18.027 5.139.302 7.436.711 2.023.361 4.431.57 5.561.881 1.131.311 1.809-.308 2.509-.927s1.507-1.289 2.508-2.087c.469-.374 1.349-1.301 2.216-2.283 1.65-1.748 3.059-3.507 3.521-4.095.61.839 1.709 2.245 2.95 3.338 1.301 1.146 4.234 3.776 4.217 4.237l.026-.01c-.121.614-.805 1.399-1.087 3.811-.172 1.481.487 3.047.656 4.66 0 0 .273 3.194-.001 3.925-.037.1-.19.068-.22.106-.098.123-.054.229-.084.472l.027.003c-.044.176-.116.388-.126.417-.049.15-.149.382-.253.663-.104.283-.376.799-.426 1.054-.051.255-.142.713.565.989s1.531.115 2.585.347c1.054.231 1.62.688 1.808.777.288.137.952.21.956.211-.001.002.875.026 1.017.003.141-.022.771-.088 1.135-.313.365-.223 1.082-.791.621-1.342-.462-.551-1.763-.527-1.763-.527s-.406-.056-.65-.239c-.245-.184-.545-.411-.682-.631-.137-.222-.297-.243-.302-.539-.004-.295.056-.462.093-.645.036-.184-.009-.599-.212-.345-.205.256-.406.721-.553.686-.081-.019-.262-.156-.42-.303.016-.304-.346-1.349-.312-2.562.095-.774.192-1.501.252-1.873.165-1.045.781-4.554.952-5.638.169-1.079.148-1.557.528-2.538.345-.893.58-1.602.185-2.577l-.006.002c-.37-.938-1.656-3.337-2.261-4.272-1.78-2.747-3.889-5.137-4.589-6.098-.137-.189-.379-.599-.523-1.056-.156-.497.246-1.242.246-1.242.442-.975.792-2.615.792-2.615" fill="#fefefe"/></g></g></svg>