<svg height="16" viewBox="0 0 26 16" width="26" xmlns="http://www.w3.org/2000/svg"><g fill="none" fill-rule="evenodd"><path d="m12.8749189 2.58253913c.8151352 0 1.5231081.55513044 1.710027 1.34052174l.4388379 1.84521739c.2649189.07547826.5252703.16139131.7775405.26365217l2.5982433-4.45495652c-1.720919-.80660869-3.6108379-1.22921739-5.5246487-1.22921739s-3.80372971.4226087-5.52429728 1.22921739l2.59789189 4.45495652c.25227029-.10226086.51262159-.18782608.77754059-.26365217l.4388378-1.84521739c.1869189-.7853913.8948919-1.34052174 1.710027-1.34052174" fill="#e4ac00"/><path d="m20.2241351 2.62229565-2.5978919 4.4546087c1.5621082 1.20208695 2.6463784 2.98226085 2.9260541 5.01634785h5.1978919c-.3176216-3.80069568-2.3547568-7.29217394-5.5260541-9.47095655" fill="#ccc"/><path d="m15.2005838 13.507687c.0003513-.034087-.0038649-.0685218-.0052703-.1029566-.0028108-.0490434-.0168649-.1714782-.0418108-.3133913-.0305676-.1749565-2.1288378-8.79652171-2.1288378-8.79652171-.017919-.07582609-.0895946-.11443478-.1630271-.11686956-.0021081-.00034783-.0091351 0-.0098378 0-.0003514 0-.0077297-.00034783-.0098378 0-.0734325.00243478-.1451081.04104347-.1630271.11686956 0 0-2.0982702 8.62156521-2.1288378 8.79652171-.0249459.1419131-.039.2643479-.0418108.3133913-.0014054.0344348-.0052703.0688696-.0052703.1029566 0 .0093913-.0014054.0187826-.0014054.0281739 0 1.2834782 1.0512433 2.3241739 2.3477297 2.3241739h.0052703c1.2964865 0 2.3473784-1.0406957 2.3473784-2.3241739 0-.0093913-.0014054-.0187826-.0014054-.0281739" fill="#e2ac24"/><path d="m5.52587838 2.2810814 2.59789189 4.46755813c-1.56210811 1.2055814-2.64637838 2.99093024-2.92605405 5.03093027h-5.1978919c.31762163-3.81174422 2.35475676-7.31337213 5.52605406-9.4984884" fill="#ccc"/></g></svg>